<svg viewBox="0 0 300 200" xmlns="http://www.w3.org/2000/svg">
    <!-- พื้นหลัง -->
    <rect width="300" height="200" fill="#FFF8DC"/>

    <!-- จาน -->
    <ellipse cx="150" cy="150" rx="120" ry="30" fill="#F5F5F5" stroke="#E0E0E0"/>

    <!-- ขนมปัง -->
    <g transform="translate(75,60)">
        <!-- ขนมปังด้านล่าง -->
        <path d="M0,50 Q75,0 150,50 Q75,100 0,50" fill="#FFE4B5" stroke="#DEB887" stroke-width="2"/>
        
        <!-- สังขยาใบเตย -->
        <path d="M20,45 Q75,10 130,45 Q75,80 20,45" fill="#90EE90" stroke="#228B22" stroke-width="2"/>
        
        <!-- ไฮไลท์บนสังขยา -->
        <path d="M40,43 Q75,20 110,43" stroke="#98FB98" stroke-width="2" fill="none" opacity="0.6"/>
        
        <!-- เงา -->
        <path d="M10,55 Q75,95 140,55" fill="none" stroke="rgba(0,0,0,0.1)" stroke-width="4"/>
    </g>

    <!-- ใบเตย -->
    <g transform="translate(200,40) rotate(30)">
        <path d="M0,0 Q10,-20 20,0 Q10,20 0,0" fill="#006400"/>
    </g>
    <g transform="translate(210,50) rotate(-20)">
        <path d="M0,0 Q10,-20 20,0 Q10,20 0,0" fill="#006400"/>
    </g>

    <!-- ไอน้ำ -->
    <g opacity="0.5">
        <path d="M140,40 Q150,20 160,40" stroke="#228B22" fill="none" stroke-width="2">
            <animate attributeName="d" dur="3s" repeatCount="indefinite"
                values="M140,40 Q150,20 160,40;
                        M140,40 Q150,10 160,40;
                        M140,40 Q150,20 160,40"/>
        </path>
        <path d="M170,35 Q180,15 190,35" stroke="#228B22" fill="none" stroke-width="2">
            <animate attributeName="d" dur="2.5s" repeatCount="indefinite"
                values="M170,35 Q180,15 190,35;
                        M170,35 Q180,5 190,35;
                        M170,35 Q180,15 190,35"/>
        </path>
    </g>
</svg>
